<?xml version="1.0" standalone="no"?>
<!DOCTYPE svg PUBLIC "-//W3C//DTD SVG 20010904//EN"
 "http://www.w3.org/TR/2001/REC-SVG-20010904/DTD/svg10.dtd">
<svg version="1.0" xmlns="http://www.w3.org/2000/svg"
 width="461.000000pt" height="461.000000pt" viewBox="0 0 461.000000 461.000000"
 preserveAspectRatio="xMidYMid meet">
<metadata>
Created by potrace 1.11, written by Peter Selinger 2001-2013
</metadata>
<g transform="translate(0.000000,461.000000) scale(0.100000,-0.100000)"
fill="#000000" stroke="none">
<path d="M470 3458 l0 -158 213 -1 c116 0 324 -1 460 -2 l248 -2 -4 -795 c-3
-676 -6 -805 -20 -861 -33 -142 -97 -229 -205 -280 -57 -27 -81 -33 -162 -37
-115 -5 -184 8 -280 53 -79 39 -188 139 -250 232 l-35 52 -54 -65 c-29 -35
-68 -79 -85 -98 -92 -99 -91 -96 -46 -161 97 -140 329 -289 507 -325 114 -22
248 -28 363 -14 124 14 270 75 370 153 102 79 195 230 219 356 7 33 17 76 23
95 9 25 12 316 12 1021 l1 987 -133 -2 c-72 0 -132 3 -132 7 0 5 -4 6 -8 3 -5
-3 -33 -5 -63 -5 -30 -1 -67 -1 -84 -2 -16 -1 -37 -1 -45 0 -8 0 -37 0 -65 0
-27 0 -54 0 -60 0 -5 0 -162 2 -347 4 l-338 3 0 -158z"/>
<path d="M2080 3303 c0 -175 -1 -763 -3 -1306 -1 -544 0 -990 4 -993 10 -6
349 -7 355 -1 3 3 6 155 6 339 1 183 4 338 7 345 3 6 109 116 235 243 l229
232 31 -38 c45 -56 269 -318 276 -324 3 -3 73 -84 155 -179 123 -144 521 -609
530 -619 5 -5 446 -4 452 1 4 5 -90 123 -118 147 -3 3 -87 100 -187 217 -99
117 -192 225 -205 240 -14 15 -94 109 -178 208 -85 99 -166 194 -180 210 -15
17 -73 84 -129 150 -56 66 -123 144 -149 174 -25 30 -48 58 -50 63 -1 5 49 62
112 126 63 64 150 153 193 198 104 107 492 508 573 593 35 36 108 111 162 167
55 56 99 105 99 110 0 6 -91 11 -214 12 l-214 2 -125 -127 c-177 -181 -350
-358 -592 -607 -115 -119 -323 -331 -460 -471 l-250 -256 0 730 0 731 -182 0
-183 0 0 -317z"/>
</g>
</svg>
